<svg xmlns="http://www.w3.org/2000/svg" version="1.1" xmlns:xlink="http://www.w3.org/1999/xlink" xmlns:svgjs="http://svgjs.com/svgjs" width="512" height="512" x="0" y="0" viewBox="0 0 24 24" style="enable-background:new 0 0 512 512" xml:space="preserve" class=""><g><g fill="#000" fill-rule="evenodd" clip-rule="evenodd"><path d="M5.866 8.154c.428.01.766.363.755.788l-.774-.019-.774-.019a.772.772 0 0 1 .793-.75zm-.019.77-.774-.02v.044l-.003.124a143.54 143.54 0 0 0-.031 2.02 91.921 91.921 0 0 0 .035 4.014c.05 1.334.188 3.06.302 4.347C5.504 20.905 6.732 22 8.187 22h7.626c1.455 0 2.683-1.095 2.811-2.547.114-1.286.251-3.013.302-4.347a92 92 0 0 0 .035-4.013 174.24 174.24 0 0 0-.03-2.02l-.003-.125-.001-.043a.773.773 0 0 0-.793-.75.771.771 0 0 0-.755.787l.493-.012-.493.012v.042l.003.122.01.455c.007.388.015.93.021 1.546.011 1.236.011 2.76-.034 3.94-.05 1.294-.184 2.989-.297 4.271a1.263 1.263 0 0 1-1.269 1.143H8.187a1.263 1.263 0 0 1-1.269-1.143c-.113-1.282-.247-2.977-.297-4.27a90.475 90.475 0 0 1-.034-3.941 171.08 171.08 0 0 1 .03-2.001l.003-.122.001-.042zM4 5.846c0-.425.347-.77.774-.77h14.452c.427 0 .774.345.774.77 0 .425-.347.77-.774.77H4.774A.772.772 0 0 1 4 5.845z" fill="#000000" data-original="#000000" class=""></path><path d="M8.257 3.493A2.841 2.841 0 0 1 10.76 2h2.478c1.048 0 2.011.574 2.504 1.493l1.07 1.991a.767.767 0 0 1-.32 1.04.777.777 0 0 1-1.047-.316l-1.069-1.99a1.291 1.291 0 0 0-1.138-.68H10.76c-.476 0-.914.261-1.138.68l-1.069 1.99c-.201.375-.67.517-1.047.317s-.52-.666-.32-1.04z" fill="#000000" data-original="#000000" class=""></path></g></g></svg>